{
  "accessors": [
    {
      "bufferView": 0,
      "componentType": 5126,
      "count": 108,
      "type": "VEC3",
      "max": [
        12.216044425964355,
        1.3809282779693604,
        12.216044425964355
      ],
      "min": [
        -12.216044425964355,
        -9.5367431640625E-06,
        -12.216044425964355
      ]
    },
    {
      "bufferView": 1,
      "componentType": 5126,
      "count": 108,
      "type": "VEC3",
      "max": [
        1.0,
        1.0,
        1.0
      ],
      "min": [
        -1.0,
        -1.0,
        -1.0
      ]
    },
    {
      "bufferView": 2,
      "componentType": 5126,
      "count": 108,
      "type": "VEC4",
      "max": [
        1.0,
        0.99989795684814453,
        1.0,
        1.0
      ],
      "min": [
        -0.73846131563186646,
        -0.99983274936676025,
        -0.96191412210464478,
        -1.0
      ]
    },
    {
      "bufferView": 3,
      "componentType": 5126,
      "count": 108,
      "type": "VEC2",
      "max": [
        0.999860405921936,
        0.97722113132476807
      ],
      "min": [
        0.0025373548269271851,
        0.0001396429433953017
      ]
    },
    {
      "bufferView": 4,
      "componentType": 5125,
      "count": 162,
      "type": "SCALAR",
      "max": [
        107.0
      ],
      "min": [
        0.0
      ]
    }
  ],
  "asset": {
    "generator": "UnityGLTF (2018.4.21f1)",
    "version": "2.0"
  },
  "buffers": [
    {
      "uri": "Unity2Skfb.bin",
      "byteLength": 5832
    }
  ],
  "bufferViews": [
    {
      "buffer": 0,
      "byteLength": 1296
    },
    {
      "buffer": 0,
      "byteOffset": 1296,
      "byteLength": 1296
    },
    {
      "buffer": 0,
      "byteOffset": 2592,
      "byteLength": 1728
    },
    {
      "buffer": 0,
      "byteOffset": 4320,
      "byteLength": 864
    },
    {
      "buffer": 0,
      "byteOffset": 5184,
      "byteLength": 648
    }
  ],
  "materials": [
    {
      "name": "board"
    }
  ],
  "meshes": [
    {
      "primitives": [
        {
          "attributes": {
            "POSITION": 0,
            "NORMAL": 1,
            "TANGENT": 2,
            "TEXCOORD_0": 3
          },
          "indices": 4,
          "material": 0
        }
      ],
      "name": "board"
    }
  ],
  "nodes": [
    {
      "mesh": 0,
      "rotation": [
        0.0,
        0.0,
        0.0,
        -1.0
      ],
      "translation": [
        0.0,
        0.36,
        0.0
      ],
      "name": "board"
    }
  ],
  "scene": 0,
  "scenes": [
    {
      "nodes": [
        0
      ],
      "name": "Unity2Skfb"
    }
  ]
}