{
  "accessors": [
    {
      "bufferView": 1,
      "componentType": 5126,
      "count": 573,
      "max": [
        11.00100040435791,
        -5.5229997634887695,
        19.798999786376953
      ],
      "min": [
        -23.988000869750977,
        -40.61000061035156,
        11.222999572753906
      ],
      "type": "VEC3"
    },
    {
      "bufferView": 1,
      "byteOffset": 6876,
      "componentType": 5126,
      "count": 573,
      "max": [
        1.0,
        0.9985931515693665,
        0.9998989105224609
      ],
      "min": [
        -0.9998353123664856,
        -0.99859619140625,
        -0.9998891949653625
      ],
      "type": "VEC3"
    },
    {
      "bufferView": 0,
      "componentType": 5125,
      "count": 2580,
      "type": "SCALAR"
    }
  ],
  "asset": {
    "extras": {
      "author": "oraltosun (https://sketchfab.com/oraltosun)",
      "license": "CC-BY-4.0 (http://creativecommons.org/licenses/by/4.0/)",
      "source": "https://sketchfab.com/3d-models/backgammon-checkerstl-cpXSgPrSmrQPevvvN8Qunlvj6yS",
      "title": "backgammon_checker.stl"
    },
    "generator": "Sketchfab-12.64.0",
    "version": "2.0"
  },
  "bufferViews": [
    {
      "buffer": 0,
      "byteLength": 10320,
      "name": "floatBufferViews",
      "target": 34963
    },
    {
      "buffer": 0,
      "byteLength": 13752,
      "byteOffset": 10320,
      "byteStride": 12,
      "name": "floatBufferViews",
      "target": 34962
    }
  ],
  "buffers": [
    {
      "byteLength": 24072,
      "uri": "scene.bin"
    }
  ],
  "materials": [
    {
      "doubleSided": true,
      "name": "Scene_-_Root",
      "pbrMetallicRoughness": {
        "baseColorFactor": [
          0.5,
          0.5,
          0.5,
          1.0
        ],
        "metallicFactor": 0.0,
        "roughnessFactor": 0.6
      }
    }
  ],
  "meshes": [
    {
      "name": "Object_0",
      "primitives": [
        {
          "attributes": {
            "NORMAL": 1,
            "POSITION": 0
          },
          "indices": 2,
          "material": 0,
          "mode": 4
        }
      ]
    }
  ],
  "nodes": [
    {
      "children": [
        1
      ],
      "matrix": [
        1.0,
        0.0,
        0.0,
        0.0,
        0.0,
        2.220446049250313e-16,
        -1.0,
        0.0,
        0.0,
        1.0,
        2.220446049250313e-16,
        0.0,
        0.0,
        0.0,
        0.0,
        1.0
      ],
      "name": "Sketchfab_model"
    },
    {
      "children": [
        2
      ],
      "name": "b787702191c44c69ab35cb8be1df01cf.stl.cleaner.materialmerger.gles"
    },
    {
      "mesh": 0,
      "name": "Object_2"
    }
  ],
  "scene": 0,
  "scenes": [
    {
      "name": "Sketchfab_Scene",
      "nodes": [
        0
      ]
    }
  ]
}
